<svg width="16" height="16" viewBox="0 0 16 16" fill="none" xmlns="http://www.w3.org/2000/svg">
<g id="Light/arrow-right-long">
<path id="icon" d="M11.3438 3.14595L15.8438 7.66006C15.9375 7.7541 16 7.87949 16 8.00488C16 8.09893 15.9375 8.25567 15.8438 8.34971L11.3438 12.8638C11.1563 13.0519 10.8125 13.0519 10.625 12.8638C10.4375 12.6757 10.4375 12.3622 10.625 12.1428L14.2813 8.50645H0.5C0.21875 8.50645 0 8.25567 0 8.00488C0 7.7541 0.21875 7.50332 0.5 7.50332H14.2813L10.625 3.86695C10.4375 3.67886 10.4375 3.33404 10.625 3.14595C10.8125 2.95786 11.1563 2.95786 11.3438 3.14595Z" fill="#1D1D1D"/>
</g>
</svg>
