<svg width="64" height="64" viewBox="0 0 64 64" fill="none" xmlns="http://www.w3.org/2000/svg">
<path d="M34.121 32L49.061 17.061C49.2003 16.9217 49.3109 16.7562 49.3863 16.5742C49.4617 16.3922 49.5005 16.197 49.5005 16C49.5005 15.8029 49.4617 15.6078 49.3863 15.4258C49.3109 15.2437 49.2003 15.0783 49.061 14.939C48.9217 14.7997 48.7562 14.6891 48.5742 14.6137C48.3922 14.5383 48.197 14.4995 48 14.4995C47.8029 14.4995 47.6078 14.5383 47.4258 14.6137C47.2437 14.6891 47.0783 14.7997 46.939 14.939L32 29.879L17.061 14.939C16.7796 14.6576 16.3979 14.4995 16 14.4995C15.602 14.4995 15.2204 14.6576 14.939 14.939C14.6576 15.2204 14.4995 15.602 14.4995 16C14.4995 16.3979 14.6576 16.7796 14.939 17.061L29.879 32L14.939 46.939C14.7997 47.0783 14.6891 47.2437 14.6137 47.4258C14.5383 47.6078 14.4995 47.8029 14.4995 48C14.4995 48.197 14.5383 48.3922 14.6137 48.5742C14.6891 48.7562 14.7997 48.9217 14.939 49.061C15.2204 49.3424 15.602 49.5005 16 49.5005C16.197 49.5005 16.3922 49.4617 16.5742 49.3863C16.7562 49.3109 16.9217 49.2003 17.061 49.061L32 34.121L46.939 49.061C47.0783 49.2003 47.2437 49.3109 47.4258 49.3863C47.6078 49.4617 47.8029 49.5005 48 49.5005C48.197 49.5005 48.3922 49.4617 48.5742 49.3863C48.7562 49.3109 48.9217 49.2003 49.061 49.061C49.2003 48.9217 49.3109 48.7562 49.3863 48.5742C49.4617 48.3922 49.5005 48.197 49.5005 48C49.5005 47.8029 49.4617 47.6078 49.3863 47.4258C49.3109 47.2437 49.2003 47.0783 49.061 46.939L34.121 32Z" fill="#1D1D1D"/>
</svg>
