<svg width="32" height="14" viewBox="0 0 32 14" fill="none" xmlns="http://www.w3.org/2000/svg">
<path d="M16 0C14.5508 0 13.375 1.17578 13.375 2.625V7C13.375 8.44922 14.5508 9.625 16 9.625C17.4492 9.625 18.625 8.44922 18.625 7V2.625C18.625 1.17578 17.4492 0 16 0ZM12.5 5.90625C12.5 5.54258 12.2074 5.25 11.8438 5.25C11.4801 5.25 11.1875 5.54258 11.1875 5.90625V7C11.1875 9.43633 12.9977 11.4488 15.3438 11.7688V12.6875H14.0312C13.6676 12.6875 13.375 12.9801 13.375 13.3438C13.375 13.7074 13.6676 14 14.0312 14H16H17.9688C18.3324 14 18.625 13.7074 18.625 13.3438C18.625 12.9801 18.3324 12.6875 17.9688 12.6875H16.6562V11.7688C19.0023 11.4488 20.8125 9.43633 20.8125 7V5.90625C20.8125 5.54258 20.5199 5.25 20.1562 5.25C19.7926 5.25 19.5 5.54258 19.5 5.90625V7C19.5 8.9332 17.9332 10.5 16 10.5C14.0668 10.5 12.5 8.9332 12.5 7V5.90625Z" fill="#FFFFFF"/>
</svg>
