<svg width="22" height="21" viewBox="0 0 22 21" fill="none" xmlns="http://www.w3.org/2000/svg">
<path d="M16.2965 1.66311C16.0208 2.7066 15.2058 3.52155 14.1623 3.79721L12.7805 4.16224C12.433 4.25402 12.433 4.74714 12.7804 4.839L14.1629 5.20454C15.2061 5.48035 16.0207 6.29511 16.2965 7.3383L16.6617 8.72018C16.7535 9.0676 17.2466 9.0676 17.3384 8.72018L17.7037 7.3383C17.9794 6.29511 18.7941 5.48035 19.8372 5.20454L21.2197 4.839C21.5672 4.74714 21.5671 4.25402 21.2197 4.16224L19.8379 3.79721C18.7944 3.52155 17.9794 2.7066 17.7036 1.66311L17.3384 0.281094C17.2466 -0.0663541 16.7535 -0.0663542 16.6617 0.281094L16.2965 1.66311Z" fill="url(#paint0_linear_78_4742)"/>
<path d="M7.91652 6.58714C7.35037 8.98138 5.48096 10.8508 3.08672 11.4169L0.97194 11.917C0.356165 12.0626 0.355982 12.9389 0.971695 13.0847L3.08936 13.5864C5.48219 14.1533 7.35026 16.022 7.91637 18.415L8.4166 20.5295C8.56225 21.1452 9.4384 21.1454 9.58431 20.5297L10.0862 18.4123C10.653 16.0207 12.5203 14.1534 14.9119 13.5866L17.0293 13.0847C17.645 12.9388 17.6448 12.0627 17.0291 11.917L14.9146 11.4168C12.5215 10.8507 10.6529 8.98261 10.086 6.58978L9.58432 4.47211C9.43846 3.8564 8.56219 3.85658 8.41659 4.47236L7.91652 6.58714Z" fill="url(#paint1_linear_78_4742)"/>
<defs>
<linearGradient id="paint0_linear_78_4742" x1="0.51001" y1="0.0205078" x2="25.0749" y2="5.86199" gradientUnits="userSpaceOnUse">
<stop stop-color="#62D84E"/>
<stop offset="0.8" stop-color="#24C2CE"/>
</linearGradient>
<linearGradient id="paint1_linear_78_4742" x1="0.51001" y1="0.0205078" x2="25.0749" y2="5.86199" gradientUnits="userSpaceOnUse">
<stop stop-color="#62D84E"/>
<stop offset="0.8" stop-color="#24C2CE"/>
</linearGradient>
</defs>
</svg>
